# xmcd
#
# Track frame offsets:
#	150
#	19162
#	32841
#	47479
#	62737
#	77378
#	96092
#	106076
#	118022
#	140090
#	152260
#	168845
#	187094
#	202566
#
# Disc length: 2984 seconds
#
# Revision: 1
# Processed by: cddbd v1.5.1PL0 Copyright (c) Steve Scherf et al.
# Submitted via: audiograbber 1.83.01
#
DISCID=a50ba60e
DTITLE=John Denver - A Celebration of Life
DYEAR=1990
DGENRE=Country
TTITLE0=Fly Away
TTITLE1=You Fill Up My Senses
TTITLE2=Take Me Home, Country Roads 
TTITLE3=I often have wondered
TTITLE4=Dreamland Express
TTITLE5=Rocky Mountain High 
TTITLE6=Christmas For Cowboys 
TTITLE7=Love Again 
TTITLE8=Sunshine On My Shoulders 
TTITLE9=Perhaps Love 
TTITLE10=Leaving On A Jetplane 
TTITLE11=Windsong
TTITLE12=I'm Sorry 
TTITLE13=Back Home Again 
EXTD=
EXTT0=
EXTT1=
EXTT2=
EXTT3=
EXTT4=
EXTT5=
EXTT6=
EXTT7=
EXTT8=
EXTT9=
EXTT10=
EXTT11=
EXTT12=
EXTT13=
PLAYORDER=
